<svg width="129" height="52" viewBox="0 0 129 52" fill="none" xmlns="http://www.w3.org/2000/svg">
<path d="M117.287 20.1301C108.64 20.1301 108.649 28.7176 108.649 28.7176C108.649 28.7176 108.055 37.262 117.288 37.262C117.288 37.262 124.982 37.6988 124.982 31.3185H121.025C121.025 31.3185 121.157 33.7213 117.42 33.7213C117.42 33.7213 113.463 33.9835 113.463 29.8326H125.114C125.114 29.8326 126.386 20.1301 117.287 20.1301ZM120.803 26.8495H113.418C113.418 26.8495 113.901 23.4047 117.375 23.4047C120.849 23.4047 120.804 26.8495 120.804 26.8495H120.803Z" fill="#005CFF"/>
<path d="M17.8423 24.6475C17.8423 24.6475 21.2731 24.3942 21.2731 20.395C21.2731 16.3959 18.4664 14.4433 14.911 14.4433C14.911 14.4433 14.9104 14.4433 14.9098 14.4433H8.36506H3.20966V36.7941H8.17343V36.7954H14.9098C14.9098 36.7954 22.0523 37.0189 22.0523 30.1973C22.0523 30.1973 22.364 24.6475 17.8423 24.6475ZM14.0692 18.4158H14.911C14.911 18.4158 16.5015 18.4158 16.5015 20.7411C16.5015 23.0664 15.5658 23.4029 14.5061 23.4029C14.4984 23.4029 14.4907 23.4042 14.4831 23.4042H8.3657V18.4158H14.0698H14.0692ZM14.4799 32.8229H14.3962C14.3029 32.8229 14.2237 32.8204 14.1624 32.8204C14.1522 32.8204 14.1433 32.8217 14.1337 32.8229H8.36506V26.849H14.9098V26.8465L14.911 26.8477C14.911 26.8477 17.2808 26.8173 17.2808 29.9173C17.2808 32.6255 15.376 32.8179 14.4792 32.8229H14.4799Z" fill="#005CFF"/>
<path d="M31.5782 20.1301C22.9314 20.1301 22.9397 28.7176 22.9397 28.7176C22.9397 28.7176 22.3463 37.262 31.5782 37.262C31.5782 37.262 39.2721 37.6988 39.2721 31.3185H35.315C35.315 31.3185 35.4466 33.7213 31.7098 33.7213C31.7098 33.7213 27.7527 33.9835 27.7527 29.8326H39.403C39.403 29.8326 40.6786 20.1301 31.5782 20.1301ZM35.0946 26.8495H27.7093C27.7093 26.8495 28.1928 23.4047 31.6664 23.4047C35.14 23.4047 35.0952 26.8495 35.0952 26.8495H35.0946Z" fill="#005CFF"/>
<path d="M36.019 15.7596H26.7417V18.5123H36.019V15.7596Z" fill="#005CFF"/>
<path d="M56.2413 25.6381V25.419H56.2375C56.1512 22.7616 54.5109 20.1302 50.7461 20.1302C47.8774 20.1302 46.338 21.9323 45.7338 22.8638V14.4433H41.1622V36.7834H45.7338V27.7342C45.7338 25.7683 46.2167 23.7134 48.8547 23.7134C51.6997 23.7134 51.6997 25.4184 51.6997 25.4184V25.4171H51.701V26.3474L51.7579 26.3607V36.7834H56.2419V25.6419C56.2419 25.6419 56.2419 25.6406 56.2419 25.64C56.2419 25.6394 56.2419 25.6387 56.2419 25.6381H56.2413Z" fill="#005CFF"/>
<path d="M103.198 30.4578C103.198 30.4578 103.314 33.7686 100.218 33.7686C97.1224 33.7686 96.3041 30.4699 96.3041 28.5776C96.3041 26.6854 96.9461 23.4888 100.277 23.4888C103.607 23.4888 103.49 26.3342 103.49 26.3342H107.638C107.638 26.3342 107.93 20.131 100.335 20.131C92.7412 20.131 91.9229 26.2453 91.9229 28.6995C91.9229 31.1538 93.2081 37.3493 100.219 37.3493C107.229 37.348 107.93 31.7348 107.93 30.4572H103.198L103.198 30.4578Z" fill="#005CFF"/>
<path d="M90.2376 25.6379V25.4189H90.2338C90.1476 22.7614 88.506 20.1301 84.7424 20.1301C81.8718 20.1301 80.3324 21.9341 79.7288 22.8656V20.3695H75.1572V36.7838H79.7288V27.9131C79.7294 27.8636 79.7301 27.8045 79.7301 27.7346C79.7301 25.7687 80.213 23.7139 82.851 23.7139C85.6961 23.7139 85.6961 25.4189 85.6961 25.4189V26.3478L85.7542 26.3618V36.7845H90.2383V25.643C90.2383 25.643 90.2383 25.6417 90.2383 25.6411C90.2383 25.6405 90.2383 25.6398 90.2383 25.6392L90.2376 25.6379Z" fill="#005CFF"/>
<path d="M72.7775 33.6951V24.1234C72.7775 24.1234 73.3185 20.1312 66.0827 20.1312C58.8468 20.1312 58.3831 23.736 58.3441 25.8899H63.1808C63.1808 25.8899 62.9879 23.042 66.0443 23.042C66.0443 23.042 68.637 22.8369 68.637 25.42C68.637 25.42 68.637 27.118 66.2768 27.2723C63.9166 27.4266 57.9187 27.3891 57.9187 32.2347C57.9187 32.2347 57.7635 37.3501 63.2779 37.3501C63.2779 37.3501 67.051 37.427 68.637 35.1188V36.7837H73.6277C73.6277 36.7837 72.7775 36.3494 72.7775 33.6958V33.6951ZM64.9214 34.1955C64.9214 34.1955 62.2131 34.3124 62.2131 32.0035C62.2131 32.0035 61.9812 30.2338 65.7735 29.6573C67.2822 29.5417 67.9785 29.4382 68.5981 28.7404V31.7343C68.5981 31.7343 68.211 34.1961 64.922 34.1961L64.9214 34.1955Z" fill="#005CFF"/>
</svg>
