<svg width="138" height="56" viewBox="0 0 138 56" fill="none" xmlns="http://www.w3.org/2000/svg">
<path d="M44.0939 24.879C45.5496 24.879 46.7299 23.6987 46.7299 22.2425C46.7299 20.7862 45.5501 19.6059 44.0939 19.6059C42.6377 19.6059 41.4578 20.7862 41.4578 22.2425C41.4578 23.6987 42.6377 24.879 44.0939 24.879ZM131.085 33.8875C130.684 33.6056 130.375 33.5587 130.118 34.1064C125.69 43.6952 118.23 38.9102 118.971 39.3312C120.626 38.5743 124.978 35.0837 124.321 30.2641C123.921 27.3186 121.393 26.012 118.71 26.4798C114.025 27.2962 112.303 32.3484 113.18 36.8213C113.333 37.5894 113.607 38.2231 113.881 38.8435C108.589 43.148 106.486 34.9905 106.248 34.0153C106.238 33.9634 110.335 30.5486 111.474 22.4125C112.669 13.8849 109.948 12.332 107.166 12.3803C102.019 12.4699 100.628 23.2248 102.496 32.1885C102.34 32.2293 101.611 32.6329 100.441 32.6782C99.5988 30.0279 96.0003 27.7054 95.0586 28.6002C92.7015 30.8392 95.6302 35.217 97.6911 35.5601C96.4533 43.1847 88.7111 41.2963 90.1525 31.7437C92.6735 27.062 94.5909 20.1006 94.2488 15.8979C94.1277 14.4102 93.0278 12.4165 90.5399 12.5157C85.7549 12.7051 85.2347 23.463 85.7956 31.0983C85.7676 30.9105 85.5014 32.0262 83.5408 32.5805C83.0771 30.006 78.9314 27.4219 77.9557 28.6643C76.1289 30.9899 79.2948 35.1356 80.7943 35.4252C79.5565 43.0498 71.8148 41.1615 73.2557 31.6088C75.7767 26.9272 77.6941 19.9658 77.352 15.7636C77.2309 14.2753 76.131 12.2821 73.6431 12.3808C68.8581 12.5702 68.3379 23.3281 68.8988 30.9639C68.8708 30.7731 68.598 31.9254 66.5575 32.471C66.4893 29.1311 62.3288 27.599 61.3292 28.6648C59.5477 30.5644 61.7369 34.4627 63.7621 35.4257C62.5243 43.0503 54.7826 41.162 56.2235 31.6093C58.7445 26.9277 60.6619 19.9663 60.3198 15.7641C60.1987 14.2758 59.0988 12.2826 56.6109 12.3814C51.8259 12.5707 51.4411 23.8697 52.002 31.505C50.4262 38.2577 45.1404 46.6906 45.827 29.7978C45.8947 28.6129 45.969 28.163 45.3781 27.7191C44.9352 27.3746 43.9285 27.5405 43.3782 27.5537C42.7094 27.5807 42.542 27.9716 42.3939 28.5636C42.0493 30.091 41.9877 31.5717 41.9383 33.5918C41.9063 34.537 41.8304 34.9778 41.4665 36.2665C41.1031 37.5548 39.0295 39.9099 37.8939 39.5159C36.3186 38.9744 36.8357 34.5278 37.131 31.4729C37.3768 29.0588 36.5894 27.9747 34.5718 27.5802C33.3904 27.3338 32.6727 27.3715 31.4425 26.9842C30.279 26.6177 30.0158 24.4168 27.5345 25.1503C26.1776 25.5519 27.05 28.4271 26.7237 30.5588C25.1199 41.0429 21.7835 41.331 20.2352 36.238C27.2067 19.1616 22.2518 12.4302 19.3511 12.4302C16.4503 12.4302 12.8768 14.511 14.3391 27.825C13.628 27.6173 13.4097 27.5059 12.6309 27.5059C8.2292 27.5059 5.23026 31.0647 5.23026 35.4542C5.23026 39.8437 8.22971 43.403 12.6314 43.403C15.2298 43.403 17.0545 42.2212 18.4364 40.3929C19.3378 41.6842 20.4357 43.4229 22.4431 43.3445C28.4273 43.1114 30.1675 30.8367 30.3731 30.1521C31.0129 30.2508 31.6181 30.4371 32.2091 30.5359C33.1934 30.6835 33.2647 31.0734 33.2423 32.0633C32.9812 40.4117 34.5219 43.3348 38.0166 43.3348C39.9635 43.3348 41.6991 41.4221 42.8942 40.0539C43.787 41.8969 45.2101 43.2783 47.1188 43.3343C51.7439 43.4494 53.5147 36.0777 53.3533 37.0478C53.2266 37.8093 54.8538 43.2931 59.6154 43.3129C65.5135 43.3379 66.6099 36.8519 66.7407 35.7652C66.7641 35.5713 66.757 35.5489 66.7407 35.7652L66.7361 35.8309C68.6087 35.4827 69.5747 34.4785 69.5747 34.4785C69.5747 34.4785 71.0783 43.4132 76.6476 43.3129C82.4312 43.2081 83.522 37.3451 83.665 36.2019C83.695 35.9622 83.6838 35.9306 83.665 36.2019C83.664 36.2131 83.6635 36.2243 83.663 36.2355C85.8872 35.4262 86.4721 34.6144 86.4721 34.6144C86.4721 34.6144 87.6671 43.3715 93.5449 43.4483C98.7829 43.5171 100.724 38.1528 100.735 35.9077C101.619 35.9174 103.253 35.3835 103.215 35.3534C103.215 35.3534 105.134 43.0101 110.491 43.4035C113.007 43.5883 114.894 41.9881 115.969 41.2582C118.497 43.3053 126.916 45.9205 132.231 36.9084C132.981 35.615 131.368 34.0871 131.085 33.8875H131.085ZM12.4192 40.4301C9.85083 40.4301 8.20375 38.0551 8.20375 35.4949C8.20375 32.9347 9.71544 30.5598 12.2838 30.5598C13.4397 30.5598 14.0825 30.687 14.9824 31.4699C15.1458 32.1132 15.6085 33.5969 15.8335 34.2703C16.1353 35.1717 16.4936 35.9393 16.8555 36.7745C16.3389 38.9168 14.6445 40.4301 12.4192 40.4301ZM18.6777 31.5447C18.5708 31.3747 18.5932 31.479 18.4736 31.3182C18.0027 30.0376 17.0957 27.1791 16.9904 23.9323C16.8718 20.2594 17.4836 15.9544 19.2884 15.9544C20.511 15.9544 21.811 24.6795 18.6772 31.5447H18.6777ZM54.8401 27.7176C54.5505 25.5381 54.5352 15.8221 56.8679 16.0893C58.1556 16.611 56.0515 25.7794 54.8401 27.7176ZM71.8723 27.7176C71.5827 25.5381 71.5674 15.8221 73.9001 16.0893C75.1878 16.611 73.0837 25.7794 71.8723 27.7176ZM88.7696 27.853C88.4795 25.673 88.4647 15.957 90.7969 16.2247C92.0846 16.7464 89.9805 25.9153 88.7696 27.853ZM107.424 15.5208C109.557 15.2999 109.469 24.6123 105.188 30.4921C104.636 28.3671 103.79 16.2507 107.424 15.5208ZM116.387 35.5601C115.702 32.1 117.472 29.8279 119.297 29.5785C119.934 29.4767 120.859 29.89 121.043 30.6621C121.346 32.1178 120.999 34.2769 116.916 37.0163C116.922 37.0397 116.54 36.3307 116.388 35.5601H116.387Z" fill="black"/>
</svg>
