<svg width="126" height="51" viewBox="0 0 126 51" fill="none" xmlns="http://www.w3.org/2000/svg">
<path d="M116.905 36.621H112.529V29.6859C112.529 28.0323 112.499 25.9034 110.253 25.9034C108.006 25.9034 107.624 27.705 107.624 29.5654V36.6205H103.248V22.3593H107.45V24.308H107.509C108.365 22.8258 109.959 21.9407 111.654 22.0044C116.09 22.0044 116.907 24.9566 116.907 28.7974L116.905 36.621H116.905ZM98.3104 20.4101C96.908 20.4101 95.7705 19.26 95.7705 17.8408C95.7705 16.4217 96.907 15.2706 98.3095 15.2706C99.7119 15.2706 100.849 16.4207 100.849 17.8399C100.849 19.259 99.7128 20.4101 98.3104 20.4101ZM100.499 36.621H96.1178V22.3593H100.499V36.621ZM119.087 11.1579H93.9188C92.729 11.1441 91.7539 12.1086 91.7393 13.312V38.8852C91.7534 40.0896 92.7286 41.0546 93.9188 41.0417H119.087C120.279 41.057 121.258 40.0921 121.275 38.8852V13.3105C121.258 12.1047 120.279 11.1406 119.087 11.1564M79.8283 25.8017C77.64 25.8017 76.3273 27.28 76.3273 29.4341C76.3273 31.5882 77.6395 33.0681 79.8283 33.0681C82.017 33.0681 83.3326 31.5922 83.3326 29.4341C83.3326 27.2761 82.0194 25.8017 79.8283 25.8017ZM87.3613 36.6126H83.3326V34.7211H83.2731C82.2487 36.1156 80.6395 36.9463 78.9224 36.9665C74.7176 36.9665 71.9479 33.8958 71.9479 29.5531C71.9479 25.5648 74.3991 21.9027 78.4283 21.9027C80.2395 21.9027 81.9312 22.4042 82.9233 23.7942H82.9809V15.5737H87.3613V36.6126ZM66.3285 27.826C66.3626 26.36 65.2158 25.1437 63.767 25.1092C63.7251 25.1082 63.6831 25.1082 63.6417 25.1092C62.051 25.009 60.6744 26.2183 60.549 27.826H66.3285ZM70.0357 34.1456C68.5631 35.9527 66.366 36.9942 64.0514 36.9828C59.6754 36.9828 56.1715 34.0271 56.1715 29.4494C56.1715 24.8717 59.6749 21.9175 64.0514 21.9175C68.1416 21.9175 70.7069 24.8698 70.7069 29.4494V30.8379H60.5495C60.811 32.4663 62.2178 33.6505 63.8475 33.6145C65.1134 33.6066 66.2885 32.9506 66.9704 31.8716L70.0357 34.1451V34.1456ZM26.5305 22.3558H30.7329V24.3046H30.7924C31.6475 22.8218 33.2407 21.9363 34.9362 22.0009C39.3742 22.0009 40.1908 24.9557 40.1908 28.7939V36.6146H35.8148V29.6809C35.8148 28.0259 35.7845 25.8984 33.5353 25.8984C31.286 25.8984 30.9095 27.7006 30.9095 29.5605V36.6126H26.5334L26.53 22.3558H26.5305ZM42.4103 15.5752H46.7863V28.1522L51.7462 22.3479H57.1115L51.3677 28.9504L56.9905 36.6215H51.4901L46.8444 29.5723H46.7868V36.621H42.4108L42.4098 15.5757L42.4103 15.5752ZM19.7277 22.3544H24.1037V36.6156H19.7277V22.3544ZM21.9159 15.2642C23.3179 15.2642 24.4544 16.4148 24.454 17.8334C24.454 19.2521 23.3169 20.4022 21.915 20.4017C20.513 20.4017 19.377 19.2516 19.377 17.8329C19.377 16.4143 20.5135 15.2642 21.9155 15.2642M4.72498 15.5786H9.28052V32.3696H17.7141V36.6235H4.72498V15.5786Z" fill="white"/>
</svg>
